<?xml version="1.0" encoding="UTF-8" standalone="no"?>
<!-- Created with Inkscape (http://www.inkscape.org/) -->

<svg
   width="210mm"
   height="297mm"
   viewBox="0 0 210 297"
   version="1.1"
   id="svg1"
   sodipodi:docname="Example.svg"
   inkscape:version="1.4 (86a8ad7, 2024-10-11)"
   xmlns:inkscape="http://www.inkscape.org/namespaces/inkscape"
   xmlns:sodipodi="http://sodipodi.sourceforge.net/DTD/sodipodi-0.dtd"
   xmlns="http://www.w3.org/2000/svg"
   xmlns:svg="http://www.w3.org/2000/svg">
  <sodipodi:namedview
     id="namedview1"
     pagecolor="#ffffff"
     bordercolor="#000000"
     borderopacity="0.25"
     inkscape:showpageshadow="2"
     inkscape:pageopacity="0.0"
     inkscape:pagecheckerboard="0"
     inkscape:deskcolor="#d1d1d1"
     inkscape:document-units="mm"
     inkscape:zoom="8.523681"
     inkscape:cx="244.67129"
     inkscape:cy="568.82701"
     inkscape:window-width="1920"
     inkscape:window-height="1009"
     inkscape:window-x="-8"
     inkscape:window-y="-8"
     inkscape:window-maximized="1"
     inkscape:current-layer="layer1"
     showgrid="false" />
  <defs
     id="defs1">
    <inkscape:path-effect
       effect="bspline"
       id="path-effect13"
       is_visible="true"
       lpeversion="1.3"
       weight="33.333333"
       steps="2"
       helper_size="0"
       apply_no_weight="true"
       apply_with_weight="true"
       only_selected="false"
       uniform="false" />
    <inkscape:path-effect
       effect="bspline"
       id="path-effect12"
       is_visible="true"
       lpeversion="1.3"
       weight="33.333333"
       steps="2"
       helper_size="0"
       apply_no_weight="true"
       apply_with_weight="true"
       only_selected="false"
       uniform="false" />
  </defs>
  <g
     inkscape:label="Layer 1"
     inkscape:groupmode="layer"
     id="layer1">
    <rect
       style="fill:#a05a2c;stroke-width:0.591136"
       id="rect14"
       width="8.4666662"
       height="8.4666662"
       x="97.289948"
       y="143.96802"
       inkscape:export-filename="Ground2.png"
       inkscape:export-xdpi="96"
       inkscape:export-ydpi="96" />
    <rect
       style="fill:#a05a2c;stroke-width:0.591136"
       id="rect13"
       width="8.4666662"
       height="8.4666662"
       x="87.961548"
       y="143.96802"
       inkscape:export-filename="Ground1.png"
       inkscape:export-xdpi="96"
       inkscape:export-ydpi="96" />
    <rect
       style="fill:none;stroke-width:0.352981"
       id="rect9"
       width="16.933332"
       height="8.4666662"
       x="74.870819"
       y="132.42075"
       inkscape:export-filename="Arrow.png"
       inkscape:export-xdpi="96"
       inkscape:export-ydpi="96" />
    <g
       id="g9"
       transform="translate(-0.08734901,-0.02616502)">
      <path
         id="path8"
         style="fill:#ececec;stroke-width:0.0982919"
         d="m 89.786136,135.05461 -0.35528,0.29944 1.553904,1.30985 -1.553904,1.30969 0.35528,0.29944 1.90919,-1.60912 z" />
      <g
         id="g8"
         transform="matrix(0.22125882,0,0,-0.22125882,59.233856,167.7305)">
        <rect
           style="fill:#ff0000;stroke-width:0.264583"
           id="rect6"
           width="2.1949279"
           height="7.8139439"
           x="-3.0650616"
           y="153.05818"
           transform="rotate(-30)" />
        <rect
           style="fill:#ff0000;stroke-width:0.264583"
           id="rect7"
           width="2.1949279"
           height="7.8139439"
           x="0.96476895"
           y="155.38481"
           transform="rotate(-30)" />
        <rect
           style="fill:#ff0000;stroke-width:0.264583"
           id="rect8"
           width="2.1949279"
           height="7.8139439"
           x="4.8425303"
           y="157.62364"
           transform="rotate(-30)" />
      </g>
      <g
         id="g5"
         transform="matrix(0.22125882,0,0,0.22125882,59.233856,105.64535)">
        <rect
           style="fill:#ff0000;stroke-width:0.264583"
           id="rect3"
           width="2.1949279"
           height="7.8139439"
           x="-3.0650616"
           y="153.05818"
           transform="rotate(-30)" />
        <rect
           style="fill:#ff0000;stroke-width:0.264583"
           id="rect4"
           width="2.1949279"
           height="7.8139439"
           x="0.96476895"
           y="155.38481"
           transform="rotate(-30)" />
        <rect
           style="fill:#ff0000;stroke-width:0.264583"
           id="rect5"
           width="2.1949279"
           height="7.8139439"
           x="4.8425303"
           y="157.62364"
           transform="rotate(-30)" />
      </g>
      <rect
         style="fill:#c87137;stroke-width:0.0637468"
         id="rect1"
         width="15.83905"
         height="0.65540898"
         x="75.154343"
         y="136.35838" />
      <path
         id="rect2"
         style="fill:#e6e6e6;stroke-width:0.0982919"
         d="m 89.568409,135.05461 -0.35528,0.29944 1.553904,1.30985 -1.553904,1.30969 0.35528,0.29944 1.90919,-1.60912 z" />
    </g>
    <rect
       style="fill:#a05a2c;stroke-width:0.591136"
       id="rect10"
       width="8.4666662"
       height="8.4666662"
       x="78.223244"
       y="143.96802"
       inkscape:export-filename="Ground.png"
       inkscape:export-xdpi="96"
       inkscape:export-ydpi="96" />
    <path
       id="path10"
       style="fill:#9b572b;fill-opacity:1;stroke-width:0.264583"
       d="m 54.829061,125.46184 a 6.7164798,6.8042765 0 0 0 -0.963766,0.0718 6.7164798,6.8042765 0 0 1 5.749003,6.73292 6.7164798,6.8042765 0 0 1 -5.75107,6.73292 6.7164798,6.8042765 0 0 0 0.965833,0.0713 6.7164798,6.8042765 0 0 0 6.716902,-6.80424 6.7164798,6.8042765 0 0 0 -6.716902,-6.80475 z"
       inkscape:export-filename="Bow.png"
       inkscape:export-xdpi="96"
       inkscape:export-ydpi="96" />
    <path
       id="rect11"
       style="fill:#f2f2f2;fill-opacity:1;stroke-width:0.264583"
       inkscape:transform-center-x="1.9315367"
       inkscape:transform-center-y="1.6242467"
       d="M -48.288243 130.2477 L -49.397621 130.2477 A 6.7164798 6.8042765 45 0 1 -49.408583 131.52078 L -48.030996 131.52078 A 6.7164798 6.8042765 45 0 0 -48.288243 130.2477 z "
       transform="rotate(-45)" />
    <circle
       style="fill:#ff0000;stroke-width:0.264583"
       id="path1"
       cx="121.68681"
       cy="119.49189"
       r="7.9017406"
       inkscape:export-filename="Target.png"
       inkscape:export-xdpi="96"
       inkscape:export-ydpi="96" />
    <circle
       style="fill:#ffffff;stroke-width:0.199907"
       id="circle1"
       cx="121.68681"
       cy="119.49189"
       r="5.9702039" />
    <circle
       style="fill:#ff0000;fill-opacity:1;stroke-width:0.133761"
       id="circle2"
       cx="121.68681"
       cy="119.49189"
       r="3.9947686" />
    <circle
       style="fill:#ffffff;fill-opacity:1;stroke-width:0.0764349"
       id="circle3"
       cx="121.68681"
       cy="119.49189"
       r="2.2827249" />
    <path
       id="path2"
       style="fill:#f2f2f2;stroke:#1a1a1a;stroke-width:0.121151"
       inkscape:transform-center-x="-0.85235828"
       inkscape:transform-center-y="0.019013575"
       d="m 122.77773,98.877465 0.0225,2.045365 h -6.45577 v 1.92966 h 6.47706 l 0.0222,2.04441 2.59007,-1.53355 2.58983,-1.53331 -2.62296,-1.47629 z"
       inkscape:export-filename="WindArrow.png"
       inkscape:export-xdpi="96"
       inkscape:export-ydpi="96" />
    <path
       id="rect12"
       style="fill:#008000;fill-opacity:1;stroke-width:0.591136"
       d="m 97.332342,143.96796 c -0.0141,0.0168 -0.0291,0.0325 -0.04238,0.0501 v 1.50844 c 0.03959,0.0323 0.09634,0.0471 0.255282,0.0868 0.248328,0.0621 0.745265,0.18628 1.337386,0.14573 0.59212,-0.0405 1.28823,-0.24873 1.90531,-0.18707 0.61707,0.0617 1.15482,0.393 1.73943,0.6258 0.58461,0.23281 1.21592,0.36757 1.68671,0.2434 0.4708,-0.12416 0.78109,-0.50719 1.0139,-0.75034 0.23281,-0.24316 0.38793,-0.34685 0.52761,-0.71417 3.7e-4,-9.6e-4 6.7e-4,-0.002 0.001,-0.003 v -0.92759 c -0.016,-0.0267 -0.0344,-0.0526 -0.0548,-0.078 z"
       inkscape:export-filename="Ground2.png"
       inkscape:export-xdpi="96"
       inkscape:export-ydpi="96" />
    <path
       id="path12"
       style="fill:#008000;stroke:none;stroke-width:0.264583"
       d="m 87.961549,143.96795 v 1.53583 c 0.141134,0.0908 0.321921,0.17308 0.560173,0.22324 0.589787,0.12416 1.521148,0.0519 2.157491,-0.13436 0.636343,-0.18625 0.97771,-0.48627 1.438155,-0.49661 0.460445,-0.0103 1.039491,0.26906 1.701705,0.42426 0.662214,0.15521 1.407476,0.18614 2.0283,0.10336 0.211489,-0.0282 0.40656,-0.0709 0.580843,-0.12713 v -1.52859 z"
       inkscape:export-filename="Ground1.png"
       inkscape:export-xdpi="96"
       inkscape:export-ydpi="96" />
    <path
       id="path16"
       style="fill:#a05a2c;stroke-width:0.591136"
       d="M 71.603898 143.98501 L 63.154801 152.43462 L 71.603898 152.43462 L 71.603898 143.98501 z "
       inkscape:export-filename="GroundAngled.png"
       inkscape:export-xdpi="96"
       inkscape:export-ydpi="96" />
    <path
       id="path17"
       style="fill:#a05a2c;stroke-width:0.591136"
       d="m 57.511297,143.98501 -8.449097,8.44961 h 8.449097 z"
       inkscape:export-filename="GroundAngledGrass.png"
       inkscape:export-xdpi="96"
       inkscape:export-ydpi="96" />
    <path
       id="path18"
       style="fill:#008000;fill-opacity:1;stroke:none;stroke-width:0.1;stroke-dasharray:none;stroke-opacity:1"
       d="m 57.511218,143.98501 -8.449096,8.44961 h 1.743046 c 0.06541,-0.0652 0.113733,-0.12634 0.132808,-0.1788 0.124163,-0.34145 0.496812,-1.11751 0.77618,-1.3348 0.279369,-0.21729 1.831307,-1.02408 1.92443,-1.14825 0.09312,-0.12416 0.09314,-0.68294 0.900204,-1.3348 0.518481,-0.41877 0.931525,-0.776 1.272975,-0.86912 0.341453,-0.0931 0.807094,-0.62075 1.179588,-1.02431 0.117598,-0.12739 0.312367,-0.31789 0.519865,-0.51728 z"
       sodipodi:nodetypes="cccsssssscc" />
  </g>
</svg>
