<?xml version="1.0" encoding="UTF-8" standalone="no"?>
<!-- Created with Inkscape (http://www.inkscape.org/) -->

<svg
   width="210mm"
   height="297mm"
   viewBox="0 0 210 297"
   version="1.1"
   id="svg1"
   sodipodi:docname="Example.svg"
   inkscape:version="1.4 (86a8ad7, 2024-10-11)"
   xmlns:inkscape="http://www.inkscape.org/namespaces/inkscape"
   xmlns:sodipodi="http://sodipodi.sourceforge.net/DTD/sodipodi-0.dtd"
   xmlns="http://www.w3.org/2000/svg"
   xmlns:svg="http://www.w3.org/2000/svg">
  <sodipodi:namedview
     id="namedview1"
     pagecolor="#ffffff"
     bordercolor="#000000"
     borderopacity="0.25"
     inkscape:showpageshadow="2"
     inkscape:pageopacity="0.0"
     inkscape:pagecheckerboard="0"
     inkscape:deskcolor="#d1d1d1"
     inkscape:document-units="mm"
     inkscape:zoom="4.2618406"
     inkscape:cx="253.88092"
     inkscape:cy="516.67817"
     inkscape:window-width="1368"
     inkscape:window-height="842"
     inkscape:window-x="-6"
     inkscape:window-y="-6"
     inkscape:window-maximized="1"
     inkscape:current-layer="layer1" />
  <defs
     id="defs1" />
  <g
     inkscape:label="Layer 1"
     inkscape:groupmode="layer"
     id="layer1">
    <rect
       style="fill:none;stroke-width:0.352981"
       id="rect9"
       width="16.933332"
       height="8.4666662"
       x="74.870819"
       y="132.42075"
       inkscape:export-filename="Arrow.png"
       inkscape:export-xdpi="96"
       inkscape:export-ydpi="96" />
    <g
       id="g9"
       transform="translate(-0.08734901,-0.02616502)">
      <path
         id="path8"
         style="fill:#ececec;stroke-width:0.0982919"
         d="m 89.786136,135.05461 -0.35528,0.29944 1.553904,1.30985 -1.553904,1.30969 0.35528,0.29944 1.90919,-1.60912 z" />
      <g
         id="g8"
         transform="matrix(0.22125882,0,0,-0.22125882,59.233856,167.7305)">
        <rect
           style="fill:#ff0000;stroke-width:0.264583"
           id="rect6"
           width="2.1949279"
           height="7.8139439"
           x="-3.0650616"
           y="153.05818"
           transform="rotate(-30)" />
        <rect
           style="fill:#ff0000;stroke-width:0.264583"
           id="rect7"
           width="2.1949279"
           height="7.8139439"
           x="0.96476895"
           y="155.38481"
           transform="rotate(-30)" />
        <rect
           style="fill:#ff0000;stroke-width:0.264583"
           id="rect8"
           width="2.1949279"
           height="7.8139439"
           x="4.8425303"
           y="157.62364"
           transform="rotate(-30)" />
      </g>
      <g
         id="g5"
         transform="matrix(0.22125882,0,0,0.22125882,59.233856,105.64535)">
        <rect
           style="fill:#ff0000;stroke-width:0.264583"
           id="rect3"
           width="2.1949279"
           height="7.8139439"
           x="-3.0650616"
           y="153.05818"
           transform="rotate(-30)" />
        <rect
           style="fill:#ff0000;stroke-width:0.264583"
           id="rect4"
           width="2.1949279"
           height="7.8139439"
           x="0.96476895"
           y="155.38481"
           transform="rotate(-30)" />
        <rect
           style="fill:#ff0000;stroke-width:0.264583"
           id="rect5"
           width="2.1949279"
           height="7.8139439"
           x="4.8425303"
           y="157.62364"
           transform="rotate(-30)" />
      </g>
      <rect
         style="fill:#c87137;stroke-width:0.0637468"
         id="rect1"
         width="15.83905"
         height="0.65540898"
         x="75.154343"
         y="136.35838" />
      <path
         id="rect2"
         style="fill:#e6e6e6;stroke-width:0.0982919"
         d="m 89.568409,135.05461 -0.35528,0.29944 1.553904,1.30985 -1.553904,1.30969 0.35528,0.29944 1.90919,-1.60912 z" />
    </g>
    <rect
       style="fill:#a05a2c;stroke-width:0.591136"
       id="rect10"
       width="8.4666662"
       height="8.4666662"
       x="78.223244"
       y="143.96802"
       inkscape:export-filename="Ground.png"
       inkscape:export-xdpi="96"
       inkscape:export-ydpi="96" />
    <path
       id="path10"
       style="fill:#9b572b;fill-opacity:1;stroke-width:0.264583"
       d="m 54.829061,125.46184 a 6.7164798,6.8042765 0 0 0 -0.963766,0.0718 6.7164798,6.8042765 0 0 1 5.749003,6.73292 6.7164798,6.8042765 0 0 1 -5.75107,6.73292 6.7164798,6.8042765 0 0 0 0.965833,0.0713 6.7164798,6.8042765 0 0 0 6.716902,-6.80424 6.7164798,6.8042765 0 0 0 -6.716902,-6.80475 z"
       inkscape:export-filename="Bow.png"
       inkscape:export-xdpi="96"
       inkscape:export-ydpi="96" />
    <path
       id="rect11"
       style="fill:#f2f2f2;fill-opacity:1;stroke-width:0.264583"
       inkscape:transform-center-x="1.9315367"
       inkscape:transform-center-y="1.6242467"
       d="M -48.288243 130.2477 L -49.397621 130.2477 A 6.7164798 6.8042765 45 0 1 -49.408583 131.52078 L -48.030996 131.52078 A 6.7164798 6.8042765 45 0 0 -48.288243 130.2477 z "
       transform="rotate(-45)" />
  </g>
</svg>
